<svg width="153" height="152" viewBox="0 0 153 152" fill="none" xmlns="http://www.w3.org/2000/svg">
<path d="M132.593 55.2777C131.642 55.2574 130.705 55.3005 129.786 55.4029C121.236 56.3555 112.689 53.682 106.768 47.4811C106.261 46.9508 105.741 46.4338 105.207 45.9307C98.9652 40.0474 96.2741 31.5567 97.2328 23.0621C97.3359 22.1493 97.3792 21.2184 97.3588 20.2736C97.1264 9.47506 88.2242 0.451272 77.3609 0.0172089C65.4464 -0.458655 55.6365 8.99609 55.6365 20.7274C55.6365 21.7967 55.718 22.8471 55.8752 23.8726C57.1266 32.0376 53.8264 40.2447 47.7949 45.929C47.2604 46.4326 46.7393 46.9501 46.2324 47.4811C40.3107 53.682 31.7641 56.3555 23.2139 55.4029C22.295 55.3005 21.3582 55.2574 20.4072 55.2777C9.53759 55.5082 0.454439 64.3522 0.0173464 75.1444C-0.461995 86.9814 9.05512 96.7274 20.8636 96.7274C21.94 96.7274 22.9972 96.6463 24.0296 96.4902C32.2483 95.2469 40.5095 98.5256 46.231 104.518C46.738 105.048 47.2588 105.566 47.7931 106.07C54.035 111.953 56.7261 120.444 55.7672 128.938C55.6641 129.851 55.6208 130.782 55.6412 131.726C55.8734 142.525 64.7756 151.549 75.6391 151.983C87.5538 152.459 97.3635 143.004 97.3635 131.273C97.3635 130.203 97.282 129.153 97.1248 128.127C95.8734 119.962 99.1736 111.755 105.205 106.071C105.74 105.567 106.262 105.049 106.769 104.518C112.491 98.5256 120.752 95.2469 128.97 96.4902C130.003 96.6463 131.06 96.7274 132.136 96.7274C143.945 96.7274 153.462 86.9814 152.983 75.1444C152.546 64.3521 143.462 55.5082 132.593 55.2777Z" fill="#231F20"/>
</svg>
