<svg width="168" height="173" viewBox="0 0 168 173" fill="none" xmlns="http://www.w3.org/2000/svg">
<path d="M167.593 128.221V129.493C167.593 147.818 153.11 168.051 120.751 171.548C112.079 172.502 96.8552 172.926 79.5154 172.926H79.3038C60.5887 172.926 39.5461 172.29 21.5716 171.548L0.317388 170.7L2.11237 128.009L23.3666 128.963C59.633 130.553 102.036 130.553 115.782 128.963C120.751 128.327 123.501 127.267 124.877 126.526V125.042C123.925 124.088 120.433 121.124 110.813 117.838C107.851 116.672 104.469 115.401 100.981 114.132C100.241 113.708 99.5001 113.496 98.7595 113.179C92.3095 115.192 85.4329 117.096 78.7749 118.58C37.4338 128.327 21.889 122.078 13.9579 116.461C4.33406 109.787 -0.423178 98.5596 1.16374 86.2724C2.85294 75.151 8.77392 66.0398 18.0803 60.5321C37.4302 48.9867 65.2402 55.6603 99.285 67.9475C103.728 66.2517 106.687 64.9799 107.851 64.45C118.952 58.3064 122.972 54.6004 124.136 50.467C121.914 48.8772 118.004 46.761 112.823 45.4892C85.0168 38.6037 32.1475 43.4755 13.9579 45.9131L0 47.7149V5.44794L8.56586 4.2821C11.5281 3.96415 82.0545 -5.46148 123.396 4.70605C153.85 12.3335 167.382 31.6122 167.382 47.5029C167.382 63.3937 157.973 80.5527 147.926 89.24C165.372 101.633 167.805 116.146 167.593 128.221Z" fill="white"/>
</svg>
