<svg width="152" height="151" viewBox="0 0 152 151" fill="none" xmlns="http://www.w3.org/2000/svg">
<path d="M25.2 99.66C39.1176 99.66 50.4 88.3776 50.4 74.46C50.4 60.5424 39.1176 49.26 25.2 49.26C11.2824 49.26 0 60.5424 0 74.46C0 88.3776 11.2824 99.66 25.2 99.66Z" fill="#231F20"/>
<path d="M75.5896 50.4C89.5072 50.4 100.79 39.1176 100.79 25.2C100.79 11.2824 89.5072 0 75.5896 0C61.6721 0 50.3896 11.2824 50.3896 25.2C50.3896 39.1176 61.6721 50.4 75.5896 50.4Z" fill="#231F20"/>
<path d="M125.98 99.66C139.897 99.66 151.18 88.3776 151.18 74.46C151.18 60.5424 139.897 49.26 125.98 49.26C112.062 49.26 100.78 60.5424 100.78 74.46C100.78 88.3776 112.062 99.66 125.98 99.66Z" fill="#231F20"/>
<path d="M75.5896 150.05C89.5072 150.05 100.79 138.767 100.79 124.85C100.79 110.932 89.5072 99.6499 75.5896 99.6499C61.6721 99.6499 50.3896 110.932 50.3896 124.85C50.3896 138.767 61.6721 150.05 75.5896 150.05Z" fill="#231F20"/>
</svg>
