<svg width="147" height="147" viewBox="0 0 147 147" fill="none" xmlns="http://www.w3.org/2000/svg">
<path d="M66.7068 57.5516C46.39 9.64387 72.5594 -37.5113 73.2701 45.7629C72.5594 -37.5113 99.5232 9.1841 80.0006 57.4263C99.5232 9.1841 151.36 -5.65638 92.9599 53.7057C151.36 -5.65638 137.398 46.3898 89.4483 66.7067C137.356 46.3898 184.511 72.5594 101.237 73.2701C184.511 72.5594 137.816 99.5232 89.5737 80.0006C137.816 99.5232 152.656 151.361 93.2943 92.9599C152.656 151.361 100.61 137.398 80.2932 89.4484C100.61 137.356 74.4406 184.511 73.7299 101.237C74.4406 184.511 47.4768 137.816 66.9994 89.5737C47.4768 137.816 -4.36044 152.656 54.0401 93.2943C-4.36044 152.656 9.60219 100.61 57.5517 80.2931C9.644 100.61 -37.5112 74.4406 45.7629 73.7299C-37.5112 74.4406 9.18413 47.4768 57.4263 66.9994C9.18413 47.4768 -5.6564 -4.36053 53.7057 54.0401C-5.6982 -4.36053 46.39 9.60207 66.7068 57.5516Z" fill="#231F20"/>
</svg>
