<svg width="152" height="153" viewBox="0 0 152 153" fill="none" xmlns="http://www.w3.org/2000/svg">
<path d="M38 76.5C17.0131 76.5 0 59.375 0 38.25C0 17.125 17.0131 0 38 0C58.9869 0 76 17.125 76 38.25C76 59.375 58.9869 76.5 38 76.5ZM114 76.5C134.987 76.5 152 59.375 152 38.25C152 17.125 134.987 0 114 0C93.0131 0 76 17.125 76 38.25C76 59.375 93.0131 76.5 114 76.5ZM38 76.5C17.0131 76.5 0 93.625 0 114.75C0 135.875 17.0131 153 38 153C58.9869 153 76 135.875 76 114.75C76 93.625 58.9869 76.5 38 76.5ZM114 76.5C93.0131 76.5 76 93.625 76 114.75C76 135.875 93.0131 153 114 153C134.987 153 152 135.875 152 114.75C152 93.625 134.987 76.5 114 76.5Z" fill="#231F20"/>
</svg>
