<svg width="153" height="152" viewBox="0 0 153 152" fill="none" xmlns="http://www.w3.org/2000/svg">
<path d="M138.673 46.3481C126.769 36.8564 115.901 26.0595 106.347 14.2329C99.3368 5.55525 88.5714 0 76.5 0C64.4286 0 53.6634 5.55525 46.653 14.2329C37.0988 26.0595 26.231 36.8564 14.3265 46.3481C5.5918 53.3124 0 64.0074 0 76C0 87.9926 5.5918 98.6874 14.3265 105.652C26.231 115.144 37.0988 125.94 46.653 137.767C53.6632 146.445 64.4286 152 76.5 152C88.5714 152 99.3366 146.445 106.347 137.767C115.901 125.94 126.769 115.144 138.673 105.652C147.408 98.6874 153 87.9925 153 76C153 64.0075 147.408 53.3126 138.673 46.3481Z" fill="#231F20"/>
</svg>
