<svg width="128" height="128" viewBox="0 0 128 128" fill="none" xmlns="http://www.w3.org/2000/svg">
<path d="M108.999 128C103.016 128 95.8614 126.284 87.7863 122.852C72.3054 116.239 55.1927 104.017 39.5863 88.4046C24.0217 72.8343 11.7627 55.7154 5.15191 40.1869C-1.66804 24.1981 -1.70994 11.7251 4.98448 4.98632C11.6789 -1.71057 24.1892 -1.66866 40.1721 5.15381C55.653 11.767 72.7656 23.9888 88.372 39.601C103.937 55.1713 116.196 72.2902 122.806 87.8186C129.626 103.807 129.668 116.28 122.974 123.019C119.668 126.368 114.899 128 108.999 128ZM19.0009 3.39589C14.022 3.39589 10.0471 4.73527 7.36935 7.37217C1.76277 12.9808 2.09753 24.4492 8.24804 38.8894C14.6914 53.9992 26.6578 70.7416 41.9713 86.0607C57.2429 101.338 74.0208 113.35 89.1251 119.796C103.56 125.949 115.024 126.284 120.631 120.675C126.237 115.067 125.903 103.598 119.752 89.158C113.309 74.0481 101.342 57.3059 86.0289 41.9867C70.7572 26.7094 53.9793 14.6968 38.875 8.25108C31.302 5.0282 24.5238 3.39589 19.0009 3.39589Z" fill="#231F20"/>
<path d="M19.0008 128C13.1013 128 8.37343 126.326 5.02621 123.019C-1.66822 116.322 -1.62642 103.807 5.19353 87.8186C11.8043 72.332 24.0216 55.2131 39.628 39.601C55.1926 24.0307 72.3052 11.767 87.8279 5.15381C103.811 -1.66866 116.279 -1.71057 123.016 4.98632C129.71 11.6832 129.668 24.1981 122.848 40.1869C116.237 55.6735 104.02 72.7924 88.4137 88.4046C72.8492 103.975 55.7365 116.239 40.2137 122.852C32.1386 126.284 24.9839 128 19.0008 128ZM108.999 3.39589C103.476 3.39589 96.698 5.0282 89.125 8.25108C74.0207 14.6968 57.2846 26.6676 41.9711 41.9867C26.6576 57.3059 14.6913 74.0481 8.24788 89.158C2.09738 103.598 1.76262 115.067 7.3692 120.675C12.9758 126.284 24.44 125.949 38.8749 119.796C53.9792 113.35 70.7152 101.38 86.0287 86.0607C101.3 70.7834 113.309 53.9992 119.752 38.8894C125.902 24.4492 126.237 12.9808 120.631 7.37217C117.953 4.73527 113.978 3.39589 108.999 3.39589Z" fill="#231F20"/>
</svg>
