<svg width="735" height="174" viewBox="0 0 735 174" fill="none" xmlns="http://www.w3.org/2000/svg">
<path d="M209.525 139.308V55.6559H197.23V35.7723H242.529V55.6559H230.234V139.308H209.525Z" fill="white"/>
<path d="M248.295 139.308V35.7723H280.063C285.358 35.7723 289.358 36.9881 292.065 39.4196C294.771 41.8119 296.575 45.1846 297.477 49.5378C298.418 53.8518 298.889 58.9306 298.889 64.7741C298.889 70.4215 298.163 74.9316 296.712 78.3043C295.3 81.6771 292.614 84.0106 288.652 85.3048C291.908 85.9715 294.183 87.599 295.477 90.1874C296.81 92.7366 297.477 96.0505 297.477 100.129V139.308H277.063V98.7762C277.063 95.7564 276.435 93.8935 275.18 93.1876C273.964 92.4425 271.984 92.0699 269.238 92.0699V139.308H248.295ZM269.356 74.1276H274.357C277.22 74.1276 278.651 71.0098 278.651 64.7741C278.651 60.7346 278.337 58.0874 277.71 56.8324C277.082 55.5774 275.906 54.95 274.18 54.95H269.356V74.1276Z" fill="white"/>
<path d="M302.889 139.308L312.891 35.7723H348.012L357.837 139.308H338.247L336.776 122.601H324.304L323.01 139.308H302.889ZM325.775 106.071H335.187L330.657 53.4204H329.716L325.775 106.071Z" fill="white"/>
<path d="M388.311 140.249C380.82 140.249 374.78 137.916 370.192 133.249C365.642 128.582 363.367 122.052 363.367 113.659V65.8918C363.367 55.852 365.348 48.1652 369.309 42.8316C373.31 37.4979 379.801 34.8311 388.782 34.8311C393.685 34.8311 398.038 35.7331 401.842 37.5371C405.686 39.3411 408.706 42.0472 410.902 45.6553C413.099 49.2241 414.197 53.7342 414.197 59.1855V77.069H393.606V61.7739C393.606 58.6757 393.214 56.5971 392.43 55.5382C391.645 54.4401 390.429 53.8911 388.782 53.8911C386.86 53.8911 385.566 54.597 384.899 56.0088C384.233 57.3815 383.899 59.2247 383.899 61.5386V113.365C383.899 116.228 384.311 118.248 385.135 119.425C385.997 120.601 387.213 121.189 388.782 121.189C390.547 121.189 391.782 120.464 392.488 119.013C393.234 117.562 393.606 115.679 393.606 113.365V94.7171H414.432V114.307C414.432 123.405 412.138 130.013 407.549 134.131C402.96 138.21 396.548 140.249 388.311 140.249Z" fill="white"/>
<path d="M430.258 139.308V55.6559H417.962V35.7723H463.262V55.6559H450.966V139.308H430.258Z" fill="white"/>
<path d="M468.086 139.308V35.7723H488.088V139.308H468.086Z" fill="white"/>
<path d="M521.033 140.249C512.758 140.249 506.424 137.759 502.031 132.778C497.677 127.758 495.501 120.523 495.501 111.071V61.8916C495.501 53.0283 497.658 46.3024 501.972 41.7138C506.326 37.1253 512.679 34.8311 521.033 34.8311C529.387 34.8311 535.721 37.1253 540.035 41.7138C544.389 46.3024 546.566 53.0283 546.566 61.8916V111.071C546.566 120.523 544.369 127.758 539.977 132.778C535.623 137.759 529.309 140.249 521.033 140.249ZM521.21 121.189C524.347 121.189 525.916 118.15 525.916 112.071V61.5386C525.916 56.4402 524.387 53.8911 521.327 53.8911C517.876 53.8911 516.15 56.4991 516.15 61.7151V112.189C516.15 115.405 516.542 117.719 517.327 119.13C518.111 120.503 519.406 121.189 521.21 121.189Z" fill="white"/>
<path d="M554.92 139.308V35.7723H576.216L585.747 85.3636V35.7723H605.749V139.308H585.512L575.157 87.5402V139.308H554.92Z" fill="white"/>
<path d="M652.873 139.308V59.5385C651.461 61.2248 649.519 62.5975 647.048 63.6564C644.577 64.676 642.244 65.1859 640.047 65.1859V48.6554C642.126 48.3417 644.362 47.675 646.754 46.6553C649.147 45.5964 651.363 44.165 653.402 42.3609C655.481 40.5177 657.069 38.3019 658.167 35.7135H674.816V139.308H652.873Z" fill="white"/>
<path d="M706.938 140.485C697.799 140.485 691.152 138.073 686.994 133.249C682.837 128.425 680.758 121.15 680.758 111.424V100.6H701.996V111.483C701.996 114.228 702.329 116.562 702.996 118.483C703.702 120.366 705.251 121.307 707.644 121.307C710.075 121.307 711.625 120.287 712.291 118.248C712.958 116.169 713.292 112.797 713.292 108.13V105.541C713.292 101.972 712.684 98.8546 711.468 96.1878C710.291 93.521 707.958 92.1876 704.467 92.1876C704.036 92.1876 703.643 92.2072 703.29 92.2464C702.977 92.2464 702.702 92.266 702.467 92.3052V73.7158C706.036 73.7158 708.762 72.9315 710.644 71.3627C712.527 69.7548 713.468 67.088 713.468 63.3622C713.468 57.5187 711.782 54.597 708.409 54.597C706.212 54.597 704.722 55.4598 703.937 57.1854C703.192 58.8718 702.82 61.0288 702.82 63.6564V66.7742H681.405C681.366 66.3036 681.327 65.7349 681.288 65.0682C681.288 64.4015 681.288 63.7544 681.288 63.1269C681.288 53.6361 683.504 46.6749 687.936 42.2433C692.367 37.8116 699.153 35.5958 708.291 35.5958C725.94 35.5958 734.765 44.7728 734.765 63.1269C734.765 68.2253 734.078 72.4412 732.706 75.7748C731.333 79.0691 728.784 81.383 725.058 82.7164C727.999 84.1282 730.176 85.9323 731.588 88.1285C733 90.3247 733.921 93.0504 734.353 96.3055C734.784 99.5606 735 103.502 735 108.13C735 118.483 732.823 126.464 728.47 132.072C724.156 137.681 716.978 140.485 706.938 140.485Z" fill="white"/>
<path fill-rule="evenodd" clip-rule="evenodd" d="M0.265137 0.00537109H86.5999V21.6825C51.2402 22.2497 22.7505 51.1323 22.7504 86.6787H0.265137V0.00537109ZM97.3968 150.958C94.2209 151.436 90.9696 151.684 87.6605 151.684C51.8116 151.684 22.7504 122.58 22.7504 86.6787H86.5999V21.6825C86.9527 21.6768 87.3063 21.6739 87.6605 21.6739C123.509 21.6739 152.571 50.7777 152.571 86.679C152.571 98.0185 149.671 108.68 144.575 117.96L129.131 86.6786L97.3968 150.958ZM97.3968 150.958C117.76 147.89 135.025 135.35 144.575 117.96L171.843 173.193H86.4196L97.3968 150.958Z" fill="white"/>
</svg>
