<svg width="153" height="153" viewBox="0 0 153 153" fill="none" xmlns="http://www.w3.org/2000/svg">
<path d="M94.9534 58.0465C122.98 86.0733 137.439 117.055 127.247 127.247C117.055 137.438 86.0733 122.98 58.0465 94.9533C30.0198 66.9267 15.5615 35.9446 25.7532 25.7531C35.9449 15.5615 66.9265 30.0198 94.9534 58.0465ZM127.247 25.7531C108.138 6.64406 87.9995 -4.19981 82.2667 1.53299C76.5339 7.2658 87.3776 27.4041 106.487 46.5132C125.596 65.6222 145.734 76.4661 151.467 70.7333C157.2 65.0007 146.356 44.8622 127.247 25.7531ZM1.53294 82.2667C-4.19969 87.9993 6.64384 108.138 25.753 127.247C44.862 146.356 65.0005 157.2 70.7333 151.467C76.4659 145.734 65.6224 125.596 46.5132 106.487C27.404 87.3776 7.26575 76.5339 1.53294 82.2667Z" fill="#231F20"/>
</svg>
