<svg width="193" height="193" viewBox="0 0 193 193" fill="none" xmlns="http://www.w3.org/2000/svg">
<path d="M144.75 67.9883C168.015 67.9883 187.431 84.4554 191.986 106.369C192.649 103.183 193 99.8824 193 96.4997C193 69.8519 171.398 48.2497 144.75 48.2497C121.074 48.2497 101.422 65.3164 97.3251 87.8101C97.3049 87.8081 97.2849 87.8057 97.2648 87.8042C99.025 77.037 104.84 58.7625 124.03 47.6832C144.178 36.0508 169.226 40.6036 184.128 57.3038C183.109 54.2132 181.763 51.1794 180.071 48.2499C166.748 25.1722 137.238 17.2654 114.161 30.5891C93.6638 42.4231 85.1742 67.0165 92.8587 88.5395C92.8407 88.5479 92.8244 88.5593 92.8067 88.5676C88.9495 78.3599 84.8603 59.6376 95.9335 40.4585C107.566 20.3104 131.535 11.7291 152.79 18.7409C150.362 16.5741 147.679 14.6197 144.75 12.9284C121.672 -0.39543 92.1632 7.51142 78.8392 30.5891C67.0056 51.0855 71.9495 76.6282 89.3649 91.4258C89.3535 91.4418 89.3388 91.4549 89.3276 91.4709C80.8832 84.5569 67.9886 70.3892 67.9886 48.2499C67.9886 24.9851 84.4557 5.56892 106.369 1.01369C103.183 0.351347 99.8828 0 96.5 0C69.8522 0 48.25 21.6022 48.25 48.2499C48.25 71.926 65.3167 91.5775 87.8104 95.6748C87.8084 95.695 87.806 95.715 87.8045 95.7351C77.0373 93.9749 58.763 88.1601 47.6835 68.97C36.0509 48.8219 40.6039 23.7736 57.3039 8.87185C54.2133 9.89124 51.1794 11.2372 48.25 12.9286C25.1722 26.2524 17.2654 55.7616 30.5892 78.8393C42.4232 99.3361 67.0166 107.826 88.5396 100.141C88.548 100.159 88.5594 100.175 88.5679 100.193C78.3602 104.051 59.6379 108.14 40.4585 97.0666C20.3106 85.4342 11.7291 61.4654 18.741 40.21C16.5743 42.6383 14.6198 45.3205 12.9284 48.2502C-0.39543 71.3277 7.51143 100.837 30.5892 114.161C51.0856 125.994 76.6282 121.05 91.4259 103.635C91.4419 103.646 91.455 103.661 91.471 103.672C84.5568 112.117 70.3895 125.011 48.25 125.011C24.9852 125.011 5.56893 108.544 1.01369 86.6308C0.351348 89.8171 0 93.1173 0 96.5001C0 123.148 21.6022 144.75 48.25 144.75C71.9261 144.75 91.5776 127.683 95.6749 105.19C95.6951 105.192 95.7151 105.194 95.7352 105.196C93.975 115.963 88.1602 134.237 68.9701 145.317C48.8222 156.949 23.7737 152.396 8.87186 135.696C9.89147 138.787 11.2372 141.82 12.9286 144.75C26.2524 167.828 55.7616 175.735 78.8394 162.411C99.3362 150.577 107.826 125.983 100.141 104.46C100.159 104.452 100.176 104.441 100.193 104.432C104.05 114.64 108.14 133.362 97.0665 152.542C85.4341 172.689 61.4652 181.271 40.2098 174.259C42.6381 176.426 45.3206 178.38 48.25 180.072C71.3278 193.395 100.837 185.489 114.161 162.411C125.994 141.915 121.05 116.372 103.635 101.574C103.646 101.558 103.661 101.545 103.672 101.529C112.117 108.443 125.011 122.611 125.011 144.75C125.011 168.015 108.544 187.431 86.6307 191.986C89.8169 192.649 93.1172 193 96.5 193C123.148 193 144.75 171.398 144.75 144.75C144.75 121.074 127.683 101.422 105.19 97.3252C105.192 97.305 105.194 97.285 105.196 97.2649C115.963 99.0251 134.237 104.84 145.316 124.03C156.949 144.178 152.396 169.226 135.696 184.128C138.787 183.109 141.821 181.763 144.75 180.071C167.828 166.748 175.735 137.238 162.411 114.161C150.577 93.6639 125.983 85.1743 104.46 92.8588C104.452 92.8408 104.441 92.8246 104.432 92.8068C114.64 88.9497 133.362 84.8605 152.541 95.9336C172.689 107.566 181.271 131.535 174.259 152.79C176.426 150.362 178.38 147.68 180.072 144.75C193.395 121.673 185.489 92.1635 162.411 78.8395C141.914 67.006 116.372 71.9499 101.574 89.3653C101.558 89.3539 101.545 89.3392 101.529 89.328C108.443 80.8836 122.611 67.9883 144.75 67.9883Z" fill="#231F20"/>
</svg>
