<svg width="182" height="179" viewBox="0 0 182 179" fill="none" xmlns="http://www.w3.org/2000/svg">
<path d="M90.9791 89.8963L76.8277 179H107.768L90.9791 89.8963Z" fill="#231F20"/>
<path d="M91.0211 89.8963L138.039 167.028L161.652 147.046L91.0211 89.8963Z" fill="#231F20"/>
<path d="M90.9791 89.8963L176.641 119.222L182 88.8117L90.9791 89.8963Z" fill="#231F20"/>
<path d="M90.979 89.8546L175.217 56.7327L159.517 30.1601L90.979 89.8546Z" fill="#231F20"/>
<path d="M90.979 89.8546L132.596 9.71965L103.163 0L90.979 89.8546Z" fill="#231F20"/>
<path d="M90.9791 89.8963L43.9614 167.028L20.3479 147.046L90.9791 89.8963Z" fill="#231F20"/>
<path d="M90.9791 89.8963L5.3591 119.222L0 88.8117L90.9791 89.8963Z" fill="#231F20"/>
<path d="M90.979 89.8546L6.74078 56.7327L22.4831 30.1601L90.979 89.8546Z" fill="#231F20"/>
<path d="M90.979 89.8546L49.4042 9.71965L78.7955 0L90.979 89.8546Z" fill="#231F20"/>
</svg>
