<svg width="153" height="153" viewBox="0 0 153 153" fill="none" xmlns="http://www.w3.org/2000/svg">
<path d="M67.8068 31.2955C67.8068 26.4944 71.6989 22.6023 76.5 22.6023C81.3011 22.6023 85.1932 26.4944 85.1932 31.2955C85.1932 36.0965 81.3011 39.9886 76.5 39.9886C71.6989 39.9886 67.8068 36.0965 67.8068 31.2955ZM76.5 13.9091C80.341 13.9091 83.4545 10.7954 83.4545 6.95455C83.4545 3.11372 80.341 0 76.5 0C72.659 0 69.5455 3.11355 69.5455 6.95455C69.5455 10.7955 72.6592 13.9091 76.5 13.9091ZM45.2045 22.2947C48.5309 20.3742 49.6706 16.121 47.7501 12.7946C45.8296 9.46844 41.5764 8.32859 38.25 10.2491C34.9238 12.1696 33.784 16.4228 35.7045 19.7492C37.625 23.0755 41.8784 24.2152 45.2045 22.2947ZM46.3693 41.6982C48.7698 45.856 54.0865 47.2807 58.2443 44.8801C62.4023 42.4796 63.8269 37.1628 61.4262 33.0051C59.0257 28.8471 53.7089 27.4225 49.5511 29.8232C45.3934 32.2237 43.9687 37.5405 46.3693 41.6982ZM12.7946 47.7501C16.1208 49.6704 20.3742 48.5307 22.2947 45.2045C24.2152 41.8782 23.0754 37.6248 19.7492 35.7045C16.4228 33.784 12.1694 34.9236 10.2491 38.25C8.32859 41.5762 9.46827 45.8296 12.7946 47.7501ZM33.0051 61.4262C37.163 63.8267 42.4798 62.4021 44.8801 58.2443C47.2807 54.0864 45.856 48.7696 41.6982 46.3693C37.5405 43.9684 32.2237 45.3932 29.8232 49.5511C27.4226 53.7089 28.8473 59.0258 33.0051 61.4262ZM39.9886 76.5C39.9886 71.6988 36.0965 67.8068 31.2955 67.8068C26.4944 67.8068 22.6023 71.6988 22.6023 76.5C22.6023 81.3012 26.4944 85.1932 31.2955 85.1932C36.0965 85.1932 39.9886 81.3012 39.9886 76.5ZM13.9091 76.5C13.9091 72.659 10.7955 69.5455 6.95455 69.5455C3.11355 69.5455 0 72.659 0 76.5C0 80.341 3.11372 83.4545 6.95455 83.4545C10.7954 83.4545 13.9091 80.3408 13.9091 76.5ZM12.7946 105.25C9.46827 107.17 8.32859 111.424 10.2491 114.75C12.1696 118.076 16.4228 119.216 19.7492 117.296C23.0754 115.375 24.2152 111.122 22.2947 107.795C20.3742 104.469 16.1208 103.33 12.7946 105.25ZM41.6982 106.631C45.8562 104.23 47.2808 98.9135 44.8801 94.7557C42.4796 90.5977 37.1628 89.1731 33.0051 91.5738C28.8473 93.9742 27.4226 99.2909 29.8232 103.449C32.2237 107.607 37.5405 109.031 41.6982 106.631ZM45.2045 130.705C41.8784 128.785 37.625 129.924 35.7045 133.251C33.784 136.577 34.9238 140.83 38.25 142.751C41.5764 144.671 45.8298 143.532 47.7501 140.205C49.6704 136.879 48.5309 132.626 45.2045 130.705ZM58.2443 108.12C54.0865 105.719 48.7698 107.144 46.3693 111.302C43.9687 115.46 45.3934 120.776 49.5511 123.177C53.7091 125.577 59.0257 124.153 61.4262 119.995C63.8267 115.837 62.4021 110.52 58.2443 108.12ZM76.5 139.091C72.6592 139.091 69.5455 142.204 69.5455 146.045C69.5455 149.886 72.6592 153 76.5 153C80.3408 153 83.4545 149.886 83.4545 146.045C83.4545 142.205 80.341 139.091 76.5 139.091ZM76.5 113.011C71.6989 113.011 67.8068 116.903 67.8068 121.705C67.8068 126.506 71.6989 130.398 76.5 130.398C81.3011 130.398 85.1932 126.506 85.1932 121.705C85.1932 116.903 81.3011 113.011 76.5 113.011ZM106.631 111.302C104.23 107.144 98.9135 105.719 94.7557 108.12C90.5979 110.52 89.1733 115.837 91.5738 119.995C93.9743 124.153 99.2911 125.577 103.449 123.177C107.607 120.776 109.031 115.46 106.631 111.302ZM107.795 130.705C104.469 132.626 103.329 136.879 105.25 140.205C107.17 143.532 111.424 144.671 114.75 142.751C118.076 140.83 119.216 136.577 117.296 133.251C115.375 129.924 111.122 128.785 107.795 130.705ZM140.206 105.25C136.879 103.33 132.626 104.469 130.705 107.795C128.785 111.122 129.925 115.375 133.251 117.296C136.577 119.216 140.831 118.076 142.751 114.75C144.672 111.424 143.532 107.17 140.206 105.25ZM119.995 91.5738C115.837 89.1729 110.52 90.5977 108.12 94.7557C105.719 98.9135 107.144 104.23 111.302 106.631C115.46 109.031 120.776 107.607 123.177 103.449C125.577 99.2909 124.153 93.9742 119.995 91.5738ZM121.705 67.8068C116.903 67.8068 113.011 71.6988 113.011 76.5C113.011 81.3012 116.903 85.1932 121.705 85.1932C126.506 85.1932 130.398 81.3012 130.398 76.5C130.398 71.6988 126.506 67.8068 121.705 67.8068ZM146.045 69.5455C142.205 69.5455 139.091 72.659 139.091 76.5C139.091 80.341 142.205 83.4545 146.045 83.4545C149.886 83.4545 153 80.3408 153 76.5C153 72.6592 149.886 69.5455 146.045 69.5455ZM111.302 46.3693C107.144 48.7696 105.719 54.0864 108.12 58.2443C110.52 62.4021 115.837 63.8267 119.995 61.4262C124.153 59.0258 125.578 53.7089 123.177 49.5511C120.776 45.3932 115.46 43.9686 111.302 46.3693ZM140.206 47.7501C143.532 45.8296 144.672 41.5762 142.751 38.25C140.831 34.9236 136.577 33.784 133.251 35.7045C129.925 37.625 128.785 41.8782 130.705 45.2045C132.626 48.5307 136.879 49.6704 140.206 47.7501ZM107.795 22.2947C111.122 24.2152 115.375 23.0755 117.296 19.7492C119.216 16.423 118.076 12.1696 114.75 10.2491C111.424 8.32859 107.17 9.46827 105.25 12.7946C103.329 16.121 104.469 20.3744 107.795 22.2947ZM94.7557 44.8803C98.9136 47.2807 104.23 45.8562 106.631 41.6984C109.031 37.5405 107.607 32.2239 103.449 29.8234C99.2911 27.4228 93.9743 28.8475 91.5738 33.0052C89.1733 37.1632 90.5979 42.4798 94.7557 44.8803ZM76.5 52.1591C63.0569 52.1591 52.1591 63.0569 52.1591 76.5C52.1591 89.9431 63.0569 100.841 76.5 100.841C89.9431 100.841 100.841 89.9431 100.841 76.5C100.841 63.0569 89.9431 52.1591 76.5 52.1591Z" fill="#231F20"/>
</svg>
