<svg width="193" height="193" viewBox="0 0 193 193" fill="none" xmlns="http://www.w3.org/2000/svg">
<path d="M96.09 43C66.81 43 43 66.82 43 96.09C43 125.36 66.82 149.18 96.09 149.18C125.36 149.18 149.18 125.36 149.18 96.09C149.18 66.82 125.36 43 96.09 43ZM96.09 120.48C82.62 120.48 71.71 109.56 71.71 96.1C71.71 82.64 82.63 71.72 96.09 71.72C109.55 71.72 120.47 82.64 120.47 96.1C120.47 109.56 109.55 120.48 96.09 120.48Z" fill="#231F20"/>
<path d="M96.06 192.12C43.09 192.12 0 149.03 0 96.06C0 43.09 43.09 0 96.06 0C149.03 0 192.12 43.09 192.12 96.06C192.12 149.03 149.03 192.12 96.06 192.12ZM96.06 13.04C50.28 13.04 13.04 50.28 13.04 96.06C13.04 141.84 50.28 179.08 96.06 179.08C141.84 179.08 179.08 141.84 179.08 96.06C179.08 50.28 141.84 13.04 96.06 13.04Z" fill="#231F20"/>
</svg>
