<svg width="153" height="153" viewBox="0 0 153 153" fill="none" xmlns="http://www.w3.org/2000/svg">
<path d="M123.056 15.8145C120.711 14.0131 118.264 12.34 115.716 10.8152V142.184C118.264 140.66 120.711 138.987 123.056 137.185V15.8145Z" fill="#231F20"/>
<path d="M87.1255 152.249C89.6129 151.903 92.0606 151.437 94.4654 150.858V2.14234C92.0606 1.5632 89.6129 1.09707 87.1255 0.751258V152.249Z" fill="#231F20"/>
<path d="M51.5801 4.17399C49.0715 5.03827 46.6212 6.02477 44.2384 7.13489V145.865C46.6212 146.975 49.0715 147.962 51.5801 148.826V4.17399Z" fill="#231F20"/>
<path d="M144.307 111.91C149.849 101.32 153 89.281 153 76.5C153 63.7189 149.849 51.6799 144.307 41.0897V111.91Z" fill="#231F20"/>
<path d="M108.762 7.13489C106.379 6.02477 103.928 5.03827 101.42 4.17399V148.826C103.928 147.962 106.379 146.975 108.762 145.865V7.13489Z" fill="#231F20"/>
<path d="M137.352 30.1563C135.106 27.2119 132.652 24.437 130.01 21.8503V131.15C132.652 128.563 135.106 125.788 137.352 122.844V30.1563Z" fill="#231F20"/>
<path d="M22.9895 21.8505C20.3481 24.4372 17.8937 27.2119 15.6477 30.1563V122.844C17.8935 125.788 20.348 128.563 22.9895 131.15V21.8505Z" fill="#231F20"/>
<path d="M80.1707 0.0928432C78.9536 0.0352944 77.731 0 76.4999 0C75.2687 0 74.046 0.0352944 72.8291 0.0928432V152.907C74.0461 152.965 75.2687 153 76.4999 153C77.731 153 78.9538 152.965 80.1707 152.907V0.0928432Z" fill="#231F20"/>
<path d="M8.69318 41.0897C3.1511 51.6799 0 63.7189 0 76.5C0 89.281 3.1511 101.32 8.69318 111.91V41.0897Z" fill="#231F20"/>
<path d="M29.9441 137.186C32.2888 138.987 34.7358 140.66 37.2841 142.185V10.8154C34.7359 12.3402 32.289 14.0131 29.9441 15.8147V137.186Z" fill="#231F20"/>
<path d="M65.8748 0.751258C63.3873 1.09707 60.9397 1.5632 58.5348 2.14234V150.858C60.9397 151.437 63.3873 151.903 65.8748 152.249V0.751258Z" fill="#231F20"/>
</svg>
